<?xml version="1.0" encoding="UTF-8"?>
<svg width="204px" height="34px" viewBox="0 0 204 34" version="1.1" xmlns="http://www.w3.org/2000/svg" xmlns:xlink="http://www.w3.org/1999/xlink">
    <title>Foreworth Logotype Header 3</title>
    <defs>
        <polygon id="path-1" points="0.1819 0.509105263 22.8587368 0.509105263 22.8587368 32.5226105 0.1819 32.5226105"></polygon>
        <polygon id="path-3" points="0 0.557957895 22.1872368 0.557957895 22.1872368 32.5716421 0 32.5716421"></polygon>
    </defs>
    <g id="Home" stroke="none" stroke-width="1" fill="none" fill-rule="evenodd">
        <g id="Desktop-HD" transform="translate(-30.000000, -28.000000)">
            <g id="Foreworth-Logotype-Header" transform="translate(30.000000, 28.000000)">
                <path d="M68.8348789,18.8578316 C69.0576684,16.0125684 70.9697211,13.6558316 74.4815632,13.6558316 C77.9951947,13.6558316 79.7730368,16.0125684 79.9510895,18.8578316 L68.8348789,18.8578316 Z M74.4815632,9.11951579 C67.5903,9.11951579 62.2102474,13.3435684 62.2102474,21.2593053 C62.2102474,29.1732526 67.5903,33.4411474 74.6157737,33.4411474 C81.6412474,33.4411474 85.0636158,29.2618316 85.9091421,26.0157263 L85.9091421,25.3491474 L79.8625105,25.3491474 C79.4178263,26.7717789 78.1285105,28.9066211 74.6157737,28.9066211 C71.0135632,28.9066211 68.9243526,26.1052 68.8348789,22.8152526 L86.3976684,22.8152526 L86.3976684,20.9032 C86.3976684,13.3435684 81.5070368,9.11951579 74.4815632,9.11951579 L74.4815632,9.11951579 Z" id="Fill-1" fill="#021A49"></path>
                <polygon id="Fill-3" fill="#021A49" points="120.592453 9.65385263 114.234453 9.65385263 110.898874 25.8387474 110.454189 25.8387474 106.097716 9.65385263 99.9607158 9.65385263 95.6042421 25.8387474 95.1595579 25.8387474 91.8248737 9.65385263 85.4659789 9.65385263 85.4659789 10.3213263 91.2468737 32.9080632 98.4942421 32.9080632 102.806874 16.9012211 103.251558 16.9012211 107.564189 32.9080632 114.811558 32.9080632 120.592453 10.3213263"></polygon>
                <path d="M132.021732,28.6841895 C128.508995,28.6841895 126.152258,25.9713474 126.152258,21.2587684 C126.152258,16.5452947 128.508995,13.8780842 132.021732,13.8780842 C135.579205,13.8780842 137.935047,16.5452947 137.935047,21.2587684 C137.935047,25.9713474 135.579205,28.6841895 132.021732,28.6841895 M132.021732,9.11987368 C125.040995,9.11987368 119.572363,13.3439263 119.572363,21.2587684 C119.572363,29.1736105 125.040995,33.4415053 132.021732,33.4415053 C139.047205,33.4415053 144.515837,29.1736105 144.515837,21.2587684 C144.515837,13.3439263 139.047205,9.11987368 132.021732,9.11987368" id="Fill-5" fill="#021A49"></path>
                <g id="Group-9" transform="translate(180.736842, 0.385721)">
                    <mask id="mask-2" fill="white">
                        <use xlink:href="#path-1"></use>
                    </mask>
                    <g id="Clip-8"></g>
                    <path d="M14.0995316,8.77897895 C9.51937368,8.77897895 7.78537368,10.9576632 7.16353158,11.7584526 L6.71884737,11.7584526 L6.71884737,0.508926316 L0.1819,0.508926316 L0.1819,32.5226105 L6.71884737,32.5226105 L6.71884737,19.4943474 C6.71884737,15.2702947 9.20800526,13.6257684 12.0980053,13.6257684 C14.7222684,13.6257684 16.3229526,15.0036632 16.3229526,17.8936632 L16.3229526,32.5226105 L22.8590053,32.5226105 L22.8590053,17.2709263 C22.8590053,11.7584526 19.3015316,8.77897895 14.0995316,8.77897895" id="Fill-7" fill="#021A49" mask="url(#mask-2)"></path>
                </g>
                <path d="M173.598989,27.9729632 L173.598989,14.9196474 L179.289516,14.9196474 L179.289516,9.65412105 L173.598989,9.65412105 L173.598989,2.40675263 L172.932411,2.40675263 L167.062937,5.16343684 L167.062937,9.65412105 L161.994253,9.65412105 L161.994253,14.7863316 L166.029516,14.7863316 C169.025989,14.9330684 171.643095,16.1364895 171.643095,20.4652263 C171.643095,21.6740158 171.294147,22.3808579 171.294147,22.3808579 L171.276253,22.3808579 C171.276253,22.3808579 170.852147,20.6379105 168.644832,20.6379105 L167.572042,20.6379105 L167.087989,20.6379105 L167.087989,27.1480158 C167.332253,30.8960684 169.893884,32.9074368 173.866516,32.9074368 L179.468463,32.9074368 L179.468463,28.3281737 L173.955095,28.3281737 L173.598989,27.9729632 Z" id="Fill-10" fill="#021A49"></path>
                <path d="M160.543168,9.56509474 L158.936221,9.56509474 C154.509063,9.56509474 153.370958,11.9656737 152.526326,13.8777263 L152.081642,13.8777263 L152.081642,9.65456842 L146.048432,9.65456842 L146.048432,32.9078842 L152.567484,32.9078842 L152.567484,23.8379368 C152.567484,17.3510947 155.507589,14.7858842 160.543168,14.7858842 L160.543168,9.56509474 Z" id="Fill-12" fill="#021A49"></path>
                <g id="Group-16" transform="translate(0.000000, 0.385721)">
                    <mask id="mask-4" fill="white">
                        <use xlink:href="#path-3"></use>
                    </mask>
                    <g id="Clip-15"></g>
                    <polygon id="Fill-14" fill="#021A49" mask="url(#mask-4)" points="6.80313158 5.62664211 22.1872368 5.62664211 22.1872368 0.557957895 -0.000447368421 0.557957895 -0.000447368421 32.5716421 6.80313158 32.5716421 6.80313158 19.0986947 20.4093947 19.0986947 20.4093947 14.0300105 6.80313158 14.0300105"></polygon>
                </g>
                <path d="M34.1497789,28.7335789 C30.6379368,28.7335789 28.2794105,26.0207368 28.2794105,21.3081579 C28.2794105,16.5946842 30.6379368,13.9265789 34.1497789,13.9265789 C37.7063579,13.9265789 40.0630947,16.5946842 40.0630947,21.3081579 C40.0630947,26.0207368 37.7063579,28.7335789 34.1497789,28.7335789 M34.1497789,9.16926316 C27.1690421,9.16926316 21.6995158,13.3924211 21.6995158,21.3081579 C21.6995158,29.223 27.1690421,33.4908947 34.1497789,33.4908947 C41.1752526,33.4908947 46.6438842,29.223 46.6438842,21.3081579 C46.6438842,13.3924211 41.1752526,9.16926316 34.1497789,9.16926316" id="Fill-17" fill="#021A49"></path>
                <path d="M62.6018737,9.56509474 L60.9949263,9.56509474 C56.5668737,9.56509474 55.4296632,11.9656737 54.5841368,13.8777263 L54.1403474,13.8777263 L54.1403474,9.65456842 L48.1080316,9.65456842 L48.1080316,32.9078842 L54.6261895,32.9078842 L54.6261895,23.8379368 C54.6261895,17.3510947 57.5654,14.7858842 62.6018737,14.7858842 L62.6018737,9.56509474 Z" id="Fill-19" fill="#021A49"></path>
                <path d="M162.404758,16.6741368 L162.404758,16.6696632 L159.453021,16.6696632 L159.453021,17.0579789 L160.440811,17.9536105 C160.331653,18.2041368 160.266337,18.4779263 160.266337,18.7678211 C160.266337,19.9274 161.206705,20.8677684 162.365389,20.8677684 C163.524968,20.8677684 164.464442,19.9274 164.464442,18.7678211 C164.464442,17.6234526 163.545547,16.6956105 162.404758,16.6741368" id="Fill-21" fill="#021A49"></path>
            </g>
        </g>
    </g>
</svg>